<?xml version="1.0" encoding="UTF-8" standalone="no"?><!DOCTYPE svg PUBLIC "-//W3C//DTD SVG 1.1//EN" "http://www.w3.org/Graphics/SVG/1.1/DTD/svg11.dtd"><svg width="100%" height="100%" viewBox="0 0 1754 1553" version="1.1" xmlns="http://www.w3.org/2000/svg" xmlns:xlink="http://www.w3.org/1999/xlink" xml:space="preserve" xmlns:serif="http://www.serif.com/" style="fill-rule:evenodd;clip-rule:evenodd;stroke-linejoin:round;stroke-miterlimit:2;"><rect x="1625.06" y="1431.42" width="90.329" height="1.042" style="fill:#e5e5e4;fill-rule:nonzero;"/><rect x="1134.8" y="1409.8" width="142.121" height="1.042" style="fill:#e5e5e4;fill-rule:nonzero;"/><rect x="1493.25" y="1392.73" width="185.521" height="1.042" style="fill:#e5e5e4;fill-rule:nonzero;"/><rect x="515.292" y="1413.74" width="46.404" height="1.042" style="fill:#e5e5e4;fill-rule:nonzero;"/><rect x="318.242" y="1413.74" width="159.95" height="1.042" style="fill:#e5e5e4;fill-rule:nonzero;"/><rect x="117.079" y="1396.15" width="115.4" height="1.042" style="fill:#e5e5e4;fill-rule:nonzero;"/><path d="M23.783,1.042c-12.541,-0 -22.741,10.204 -22.741,22.741l-0,1130.96c-0,12.542 10.2,22.742 22.741,22.742l804.58,-0c12.533,-0 22.737,-10.2 22.737,-22.742l-0,-1130.96c-0,-12.537 -10.204,-22.741 -22.737,-22.741l-804.58,-0Zm804.58,1177.49l-804.58,0c-13.116,0 -23.783,-10.666 -23.783,-23.783l-0,-1130.96c-0,-13.108 10.667,-23.783 23.783,-23.783l804.58,-0c13.108,-0 23.779,10.675 23.779,23.783l-0,1130.96c-0,13.117 -10.671,23.783 -23.779,23.783Z" style="fill:#e5e5e4;fill-rule:nonzero;"/><path d="M925.021,1.042c-12.538,-0 -22.738,10.204 -22.738,22.741l0,1130.96c0,12.542 10.2,22.742 22.738,22.742l804.579,-0c12.538,-0 22.742,-10.2 22.742,-22.742l-0,-1130.96c-0,-12.537 -10.204,-22.741 -22.742,-22.741l-804.579,-0Zm804.579,1177.49l-804.579,0c-13.113,0 -23.779,-10.666 -23.779,-23.783l-0,-1130.96c-0,-13.108 10.666,-23.783 23.779,-23.783l804.579,-0c13.113,-0 23.783,10.675 23.783,23.783l0,1130.96c0,13.117 -10.67,23.783 -23.783,23.783Z" style="fill:#e5e5e4;fill-rule:nonzero;"/><path d="M371.121,785.404c-119.908,-4.112 -213.804,-104.671 -209.696,-224.583c4.112,-120.05 104.671,-213.938 224.579,-209.834c119.909,4.113 213.809,104.663 209.692,224.713c-4.108,119.917 -104.667,213.808 -224.575,209.704Zm369.987,-177.383l1.875,-54.75l-33.616,-10.983c-1.384,-18.709 -4.509,-37.184 -8.963,-54.984l28.492,-21.008l-19.354,-51.429l-35.242,2.837c-8.4,-16.629 -18.271,-32.446 -29.337,-47.291l18.258,-30.467l-37.538,-40.046l-31.504,16.133c-14.191,-12.062 -29.154,-22.987 -45.166,-32.645l5.104,-34.975l-49.992,-22.688l-22.904,26.842c-17.45,-5.659 -35.529,-9.896 -54.233,-12.704l-8.521,-34.284l-54.896,-1.879l-10.842,33.617c-18.858,1.521 -37.183,4.512 -54.983,8.962l-21.159,-28.35l-51.429,19.213l2.846,35.246c-16.637,8.541 -32.45,18.412 -47.296,29.475l-30.325,-18.25l-40.191,37.383l16.129,31.65c-12.05,14.05 -22.984,29.158 -32.5,45.175l-34.967,-5.246l-22.829,49.975l26.983,22.912c-5.658,17.455 -10.046,35.676 -12.704,54.242l-34.433,8.65l-1.875,54.759l33.758,10.991c1.379,18.85 4.513,37.184 8.967,54.979l-28.492,21.009l19.354,51.437l35.242,-2.85c8.4,16.629 18.271,32.45 29.337,47.296l-18.258,30.467l37.538,40.05l31.504,-16.138c14.05,12.059 29.154,22.992 45.162,32.65l-5.246,34.963l49.988,22.687l23.054,-26.837c17.45,5.662 35.529,9.9 54.238,12.708l8.516,34.279l54.896,1.884l10.846,-33.621c18.854,-1.521 37.179,-4.509 54.979,-8.963l21.013,28.346l51.425,-19.212l-2.696,-35.234c16.637,-8.541 32.308,-18.421 47.292,-29.483l30.329,18.258l40.187,-37.391l-16.125,-31.646c12.05,-14.054 22.983,-29.159 32.5,-45.175l34.967,5.25l22.829,-49.988l-26.987,-22.908c5.662,-17.446 10.041,-35.525 12.704,-54.238l34.291,-8.662Z" style="fill:#e5e5e4;fill-rule:nonzero;"/><path d="M1579.73,347.25c-10.158,-10.879 -9.575,-27.937 1.304,-38.1c10.896,-10.171 27.954,-9.583 38.113,1.296c10.162,10.879 9.575,27.937 -1.317,38.108c-10.879,10.163 -27.942,9.575 -38.1,-1.304Zm98.4,79.708l13.808,-12.891l-5.516,-10.871c4.225,-4.9 7.966,-10.171 11.221,-15.596l12.07,1.825l7.821,-17.262l-9.287,-7.9c2.008,-6.1 3.458,-12.367 4.379,-18.684l11.883,-2.979l0.613,-18.917l-11.617,-3.75c-0.521,-6.4 -1.504,-12.712 -3.054,-18.975l9.775,-7.283l-6.658,-17.721l-12.134,0.963c-2.875,-5.638 -6.25,-11.08 -10.125,-16.325l6.283,-10.438l-12.929,-13.846l-10.841,5.559c-4.971,-4.229 -10.167,-7.967 -15.592,-11.225l1.754,-12.071l-17.225,-7.858l-7.9,9.291c-6.142,-1.975 -12.404,-3.425 -18.721,-4.346l-2.945,-11.845l-18.917,-0.684l-3.783,11.65c-6.367,0.488 -12.713,1.504 -18.942,3.088l-7.246,-9.8l-17.754,6.616l0.991,12.167c-5.633,2.879 -11.145,6.25 -16.325,10.129l-10.504,-6.287l-13.808,12.895l5.55,10.913c-4.258,4.933 -7.967,10.171 -11.221,15.592l-12.071,-1.825l-7.821,17.262l9.288,7.9c-2.004,6.104 -3.458,12.371 -4.379,18.684l-11.879,2.979l-0.617,18.92l11.621,3.746c0.483,6.367 1.5,12.713 3.05,18.975l-9.804,7.242l6.658,17.725l12.163,-0.921c2.875,5.634 6.25,11.075 10.129,16.321l-6.284,10.438l12.925,13.841l10.846,-5.55c4.967,4.225 10.163,7.963 15.592,11.217l-1.792,12.037l17.229,7.855l7.934,-9.25c6.137,1.975 12.371,3.387 18.72,4.341l2.942,11.85l18.917,0.679l3.787,-11.65c6.363,-0.483 12.713,-1.5 18.938,-3.087l7.246,9.808l17.758,-6.621l-0.996,-12.17c5.633,-2.876 11.113,-6.213 16.325,-10.125l10.471,6.245Z" style="fill:#e5e5e4;fill-rule:nonzero;"/><path d="M888.875,1128.22c-56.892,-1.95 -101.333,-49.708 -99.387,-106.442c1.945,-56.891 49.545,-101.337 106.437,-99.391c56.896,1.95 101.342,49.55 99.392,106.441c-1.942,56.734 -49.55,101.342 -106.442,99.392Zm285.217,-139.125l-43.088,-29.754l-0.025,-0.104c-4.258,-15.65 -10.141,-30.721 -17.329,-44.88l11.042,-43.325l-62.5,-66.937l-43.996,8.054c-13.621,-8.129 -28.246,-15.021 -43.559,-20.342l-0.108,-0.033l-26.75,-45.042l-91.516,-3.137l-29.759,43.092l-0.171,0.041c-15.637,4.259 -30.687,10.129 -44.833,17.304l-43.304,-11.037l-66.934,62.504l8.038,43.904l-0.025,0.042c-8.3,13.775 -15.029,28.404 -20.35,43.721l-45.033,26.737l-3.138,91.525l43.129,29.784c4.255,15.758 9.954,30.791 17.279,45.07l0.009,0.017l-11.009,43.196l62.5,66.925l43.721,-8c13.8,8.158 28.442,15.062 43.942,20.387l0.037,0.013l26.705,44.975l91.52,3.137l29.738,-43.058c15.821,-4.258 30.896,-10.133 45.212,-17.329l0.013,-0.008l43.108,10.987l66.934,-62.496l-8.042,-43.916c8.3,-13.78 15.033,-28.413 20.354,-43.73l0.004,-0.008l45.05,-26.754l3.134,-91.525Z" style="fill:#e5e5e4;fill-rule:nonzero;"/><path d="M1243.68,384.033c-61.241,0 -112.083,48.73 -114.196,110.4c-2.158,62.992 47.334,115.992 110.329,118.155c30.521,1.02 59.63,-9.867 81.95,-30.738c22.305,-20.85 35.163,-49.117 36.209,-79.587c2.154,-62.996 -47.338,-116 -110.329,-118.159c-1.325,-0.046 -2.65,-0.071 -3.963,-0.071Zm0.158,246.221c-1.541,0 -3.079,-0.029 -4.629,-0.079c-72.691,-2.492 -129.804,-63.658 -127.312,-136.346c2.492,-72.687 63.754,-129.783 136.346,-127.312c72.691,2.491 129.804,63.654 127.312,136.346c-1.204,35.166 -16.042,67.787 -41.775,91.841c-24.629,23.021 -56.417,35.55 -89.942,35.55Zm64.638,-316.025l0.042,0l-0.042,0Zm-103.262,395.046l62.537,2.146l20.712,-29.992c1.184,-1.716 2.938,-2.954 4.951,-3.496c11.52,-3.1 22.954,-7.479 33.979,-13.025l0.058,-0.029c1.837,-0.904 3.979,-1.183 6.075,-0.637l29.329,7.466l45.734,-42.704l-5.471,-29.887c-0.388,-2.109 0.012,-4.288 1.116,-6.125c6.034,-10.013 11.15,-20.996 15.213,-32.642c0.666,-2.067 2.079,-3.804 3.916,-4.887l31.346,-18.617l2.146,-62.538l-30.016,-20.729c-1.571,-1.083 -2.742,-2.65 -3.346,-4.454l-0.205,-0.704c-3.137,-11.492 -7.499,-22.783 -12.974,-33.563c-0.967,-1.904 -1.205,-4.087 -0.68,-6.154l7.517,-29.491l-42.708,-45.746l-29.954,5.487c-2.1,0.384 -4.263,-0.008 -6.092,-1.1c-10.417,-6.216 -21.417,-11.354 -32.692,-15.275c-0.637,-0.221 -1.283,-0.516 -1.837,-0.854c-1.217,-0.75 -2.229,-1.779 -2.955,-3.004l-18.633,-31.371l-62.542,-2.146l-20.724,30.017c-1.234,1.787 -3.084,3.05 -5.18,3.554c-11.57,3.171 -22.825,7.521 -33.558,12.967c-1.904,0.966 -4.096,1.208 -6.154,0.679l-29.479,-7.513l-45.738,42.713l5.471,29.883c0.342,1.879 0.067,3.813 -0.787,5.521l-0.396,0.708c-6.046,10.05 -11.171,21.063 -15.225,32.742c-0.684,1.958 -2.038,3.621 -3.821,4.679l-31.367,18.625l-2.142,62.538l30.042,20.746c1.713,1.183 2.95,2.937 3.492,4.945c3.237,11.984 7.6,23.359 12.958,33.821c0.308,0.6 0.55,1.234 0.713,1.892c0.354,1.412 0.354,2.896 -0.009,4.304l-7.491,29.392l42.708,45.733l29.742,-5.442c2.091,-0.379 4.241,0.009 6.062,1.084c10.604,6.271 21.659,11.404 32.863,15.271c2.025,0.641 3.779,2.008 4.895,3.891l18.601,31.321Zm67.041,19.896l-0.3,-0l-72.154,-2.471c-2.996,-0.104 -5.733,-1.725 -7.263,-4.3l-19.429,-32.721c-10.329,-3.746 -20.508,-8.471 -30.341,-14.075l-31.28,5.721c-2.954,0.558 -5.966,-0.454 -8.012,-2.65l-49.275,-52.762c-2.046,-2.192 -2.833,-5.271 -2.096,-8.18l7.867,-30.875c-4.779,-9.775 -8.779,-20.22 -11.913,-31.125l-31.379,-21.67c-2.466,-1.7 -3.896,-4.542 -3.796,-7.538l2.475,-72.158c0.1,-2.992 1.721,-5.734 4.3,-7.263l32.775,-19.462c3.888,-10.638 8.596,-20.771 14.042,-30.196l-5.75,-31.388c-0.537,-2.95 0.462,-5.97 2.65,-8.012l52.771,-49.279c2.192,-2.054 5.275,-2.834 8.179,-2.096l30.975,7.896c10.025,-4.875 20.438,-8.892 31.042,-11.963l21.65,-31.354c1.704,-2.467 4.5,-3.992 7.541,-3.796l72.155,2.475c2.995,0.104 5.733,1.721 7.262,4.3l19.467,32.779c10.341,3.788 20.446,8.5 30.112,14.05l31.475,-5.766c2.954,-0.538 5.967,0.458 8.017,2.65l49.271,52.775c2.045,2.191 2.833,5.27 2.096,8.179l-7.896,30.987c4.879,10.025 8.891,20.434 11.962,31.025l31.354,21.65c2.467,1.7 3.896,4.546 3.796,7.542l-2.471,72.158c-0.104,2.996 -1.725,5.734 -4.304,7.263l-32.787,19.471c-3.884,10.637 -8.592,20.766 -14.025,30.179l5.746,31.4c0.541,2.946 -0.459,5.971 -2.651,8.012l-52.766,49.271c-2.192,2.05 -5.267,2.838 -8.179,2.092l-30.838,-7.854c-10.166,4.904 -20.633,8.916 -31.2,11.958l-21.633,31.325c-1.646,2.383 -4.354,3.796 -7.242,3.796Z" style="fill:#e5e5e4;fill-rule:nonzero;"/><path d="M1438.47,209.879l-29.892,-8.029l-8.025,-29.888l11.704,-11.699l12.346,25.57l25.571,12.342l-11.704,11.704Z" style="fill:#d7d9d9;fill-rule:nonzero;"/><path d="M1440.33,189.871c5.442,-5.442 5.442,-14.317 -0.004,-19.767c-5.442,-5.437 -14.279,-5.404 -19.725,0.042l14.866,-22.304l19.942,10.079l4.371,20.954l-19.45,10.996Z" style="fill:#d7d9d9;fill-rule:nonzero;"/><path d="M1449.67,180.529c5.445,-5.446 5.445,-14.321 -0,-19.766c-5.446,-5.446 -14.279,-5.405 -19.725,0.041c-5.446,5.442 -5.446,14.242 -0,19.684c5.446,5.445 14.279,5.487 19.725,0.041Zm-39.771,-17.908l21.904,-21.904l29.887,8.025l8.025,29.891l-21.899,21.904l-29.892,-8.029l-8.025,-29.887Z" style="fill:#eaebea;fill-rule:nonzero;"/><path d="M216.721,1007.31l16.041,-4.309l4.309,-16.033l-6.284,-6.279l-6.625,13.716l-13.72,6.63l6.279,6.275Z" style="fill:#d7d9d9;fill-rule:nonzero;"/><path d="M215.725,996.579c-2.921,-2.925 -2.921,-7.683 0,-10.608c2.925,-2.921 7.667,-2.9 10.588,0.021l-7.98,-11.967l-10.7,5.408l-2.346,11.242l10.438,5.904Z" style="fill:#d7d9d9;fill-rule:nonzero;"/><path d="M210.712,991.563c-2.92,-2.921 -2.92,-7.684 0,-10.605c2.921,-2.92 7.663,-2.9 10.584,0.021c2.925,2.921 2.925,7.642 -0,10.563c-2.921,2.921 -7.663,2.941 -10.584,0.021Zm21.342,-9.613l-11.754,-11.75l-16.037,4.304l-4.309,16.042l11.754,11.754l16.038,-4.308l4.308,-16.042Z" style="fill:#eaebea;fill-rule:nonzero;"/><path d="M158.979,127.958l13.313,13.313c3.466,3.466 9.137,3.466 12.604,-0c3.467,-3.467 3.467,-9.138 -0,-12.604l-13.313,-13.309c-3.466,-3.466 -9.137,-3.466 -12.604,0c-3.467,3.467 -3.467,9.134 0,12.6Z" style="fill:#eaebea;fill-rule:nonzero;"/><path d="M149.6,94.804c10.258,-3.683 21.379,1.133 24.837,10.767c3.459,9.625 -2.054,20.416 -12.312,24.104c-10.258,3.683 -21.375,-1.133 -24.833,-10.762c-3.463,-9.63 2.05,-20.421 12.308,-24.109Z" style="fill:#d7d9d9;fill-rule:nonzero;"/><path d="M135.092,116.667l1.929,5.371l39.612,-14.225l-1.929,-5.371l-39.612,14.225Z" style="fill:#eaebea;fill-rule:nonzero;"/><path d="M1690.34,1505.36c-0,26.059 -361.692,47.18 -807.871,47.18c-446.175,-0 -807.871,-21.121 -807.871,-47.18c-0,-26.058 361.696,-47.183 807.871,-47.183c446.179,0 807.871,21.125 807.871,47.183Z" style="fill:#f0f0f0;fill-rule:nonzero;"/><path d="M236.883,265.988c2.584,11.35 6.542,19.02 11.888,23.016c5.341,4.004 11.646,5.175 18.904,3.521c7.462,-1.692 12.688,-5.433 15.671,-11.217c2.987,-5.787 3.05,-14.966 0.191,-27.541c-2.408,-10.579 -6.299,-17.825 -11.674,-21.738c-5.38,-3.908 -11.721,-5.033 -19.03,-3.371c-7.008,1.592 -12.066,5.35 -15.179,11.271c-3.116,5.925 -3.375,14.609 -0.771,26.059Zm-34.766,7.737c-4.171,-18.346 -2.309,-33.792 5.591,-46.346c7.896,-12.541 20.975,-20.887 39.221,-25.037c18.708,-4.254 34.263,-2.509 46.667,5.233c12.404,7.746 20.662,20.658 24.775,38.754c2.987,13.138 3.225,24.417 0.717,33.825c-2.509,9.417 -7.413,17.413 -14.705,23.988c-7.295,6.579 -17.179,11.279 -29.65,14.116c-12.675,2.884 -23.629,3.25 -32.85,1.1c-9.225,-2.145 -17.412,-7.004 -24.562,-14.579c-7.15,-7.562 -12.217,-17.912 -15.204,-31.054Z" style="fill:#0c2b34;fill-rule:nonzero;"/><path d="M366.208,252.796c1.646,7.254 4.338,12.287 8.067,15.1c3.725,2.808 7.817,3.704 12.267,2.692c4.495,-1.025 7.8,-3.575 9.908,-7.655c2.112,-4.083 2.304,-9.904 0.588,-17.466c-1.605,-7.055 -4.259,-11.979 -7.955,-14.767c-3.7,-2.787 -7.695,-3.696 -11.987,-2.717c-4.55,1.034 -7.909,3.642 -10.075,7.817c-2.171,4.171 -2.442,9.838 -0.813,16.996Zm-31.266,7.187c-2.825,-12.42 -0.959,-23.612 5.595,-33.566c6.551,-9.959 16.959,-16.559 31.217,-19.796c16.308,-3.708 29.7,-1.783 40.184,5.783c8.424,6.092 13.904,14.713 16.437,25.854c2.846,12.525 1.029,23.73 -5.458,33.617c-6.488,9.888 -17.067,16.5 -31.738,19.833c-13.083,2.975 -24.421,2.063 -34.008,-2.75c-11.788,-5.975 -19.196,-15.633 -22.229,-28.975Z" style="fill:#0c2b34;fill-rule:nonzero;"/><path d="M474.946,228.154c1.462,6.442 3.904,10.913 7.321,13.417c3.416,2.5 7.195,3.279 11.337,2.337c3.629,-0.825 6.329,-3.012 8.104,-6.558c1.771,-3.55 1.846,-8.9 0.221,-16.058c-1.5,-6.596 -3.879,-11.142 -7.137,-13.654c-3.259,-2.517 -6.73,-3.35 -10.409,-2.517c-3.987,0.908 -6.954,3.229 -8.904,6.946c-1.95,3.725 -2.129,9.083 -0.533,16.087Zm-15.038,78.571l-25.554,-112.4l29.213,-6.646l2.733,12.038c2.892,-5.975 5.817,-10.238 8.783,-12.8c4.005,-3.434 8.767,-5.779 14.288,-7.034c10.887,-2.479 20.254,-0.225 28.1,6.75c7.85,6.98 13.171,16.6 15.958,28.871c3.079,13.546 2.183,24.621 -2.687,33.225c-4.871,8.609 -12.263,14.038 -22.18,16.292c-4.804,1.092 -9.375,1.271 -13.708,0.533c-4.333,-0.733 -8.425,-2.354 -12.271,-4.866l8.838,38.875l-31.513,7.162Z" style="fill:#0c2b34;fill-rule:nonzero;"/><path d="M546.783,230.613l30.313,-9.959c2.112,3.392 4.5,5.617 7.162,6.684c2.659,1.054 5.909,1.154 9.742,0.283c4.188,-0.958 7.233,-2.583 9.125,-4.896c1.487,-1.733 2.004,-3.592 1.55,-5.587c-0.508,-2.246 -2.079,-3.713 -4.708,-4.4c-1.884,-0.488 -6.6,-0.538 -14.146,-0.167c-11.267,0.575 -19.192,0.537 -23.775,-0.113c-4.583,-0.654 -8.754,-2.562 -12.513,-5.737c-3.754,-3.167 -6.191,-7.213 -7.308,-12.113c-1.217,-5.362 -0.708,-10.333 1.525,-14.925c2.238,-4.591 5.871,-8.466 10.904,-11.625c5.033,-3.158 12.15,-5.783 21.35,-7.875c9.717,-2.208 17.05,-3.091 22.017,-2.662c4.962,0.429 9.341,1.854 13.142,4.267c3.804,2.416 7.329,6.045 10.583,10.9l-28.934,9.645c-1.358,-2.437 -3.07,-4.062 -5.137,-4.879c-2.829,-1.083 -5.979,-1.229 -9.454,-0.437c-3.525,0.804 -5.95,2.012 -7.279,3.625c-1.325,1.616 -1.788,3.321 -1.38,5.108c0.45,1.992 1.817,3.263 4.096,3.817c2.275,0.562 6.93,0.462 13.967,-0.275c10.642,-1.184 18.733,-1.304 24.267,-0.359c5.537,0.938 10.087,3.05 13.654,6.317c3.566,3.275 5.875,7.233 6.933,11.879c1.067,4.7 0.688,9.592 -1.137,14.675c-1.83,5.088 -5.5,9.642 -11.009,13.663c-5.508,4.012 -13.529,7.22 -24.058,9.616c-14.875,3.384 -25.95,3.663 -33.225,0.859c-7.279,-2.805 -12.7,-7.917 -16.267,-15.329Z" style="fill:#0c2b34;fill-rule:nonzero;"/><path d="M650.179,214.592l31.921,-0.179l0.158,28.22l-31.921,0.184l-0.158,-28.225Zm-1.671,-87.034l34.2,-0.191l0.15,26.262l-6.308,52.796l-21.15,0.117l-6.742,-52.721l-0.15,-26.263Z" style="fill:#0c2b34;fill-rule:nonzero;"/><path d="M296.087,386.65c-0.704,0.646 -2.729,3.271 -5.633,13.421c-3.833,13.383 -1.471,25.596 3.029,34.354c0.863,-1.804 1.463,-3.887 1.875,-5.842c4.321,-20.458 3.063,-38.97 0.729,-41.933Zm27.442,13.125c-1.079,2.025 -2.883,6.187 -5.583,14.708c-3.579,11.28 -3.596,20.346 -1.604,27.28l0.387,-1.046c4.9,-14.325 7.288,-34.059 6.8,-40.942Zm29.884,17.554c-0.013,0 -2.359,0.017 -7.613,9.775c-6.029,11.188 -7.562,20.396 -4.7,28.154c0.35,0.95 0.767,1.875 1.254,2.792c2.225,-0.95 4.129,-2.5 5.504,-4.6c5.834,-8.921 8.629,-27.242 6.459,-34.404c-0.446,-1.467 -0.9,-1.717 -0.904,-1.717Zm23.554,68.621l-0.746,-0.142c-18.754,-7.262 -29.975,-14.358 -35.804,-22.883c-4.234,0.85 -8.971,0.288 -13.467,-1.85c-4.367,-2.075 -8.567,-5.704 -11.583,-10.925c-2.817,2.167 -6.292,2.763 -10.109,1.563c-4.233,-1.334 -8.637,-4.896 -12.3,-10.046c-2.329,1.683 -4.716,1.933 -6.466,1.787c-12.388,-1.008 -29.175,-25.666 -30.379,-51.941c-0.055,-1.15 0.837,-2.125 1.987,-2.175c1.125,-0.096 2.125,0.837 2.175,1.987c1.142,24.938 17.125,47.213 26.554,47.975c1.529,0.15 2.809,-0.329 3.883,-1.162c-5.662,-9.93 -8.595,-24.088 -4.262,-39.217c3.583,-12.521 6.746,-17.413 10.55,-16.508c7.175,1.787 6.233,29.05 2.433,47.033c-0.862,4.075 -2.104,7.004 -3.521,9.096c3.288,4.854 7.184,8.121 10.596,9.196c3.046,0.954 5.304,0.145 6.975,-1.442c-3.275,-8.067 -3.954,-19.058 0.492,-33.075c5.846,-18.454 8.2,-18.954 9.608,-19.25c0.992,-0.213 1.984,0.116 2.688,0.912c3.85,4.346 -0.75,33.009 -5.6,47.184c-0.629,1.846 -1.413,3.454 -2.321,4.821c2.588,5.07 6.396,8.525 10.387,10.42c3.201,1.525 6.484,2.075 9.471,1.796c-0.375,-0.787 -0.712,-1.587 -1.016,-2.4c-3.3,-8.95 -1.688,-19.275 4.937,-31.575c4.396,-8.158 7.979,-11.962 11.279,-11.967l0.005,0c0.983,0 2.812,0.363 4.112,2.759c3.633,6.704 1,28.829 -6.179,39.808c-1.692,2.588 -4.029,4.546 -6.742,5.825c5.583,7.342 16.183,13.809 33.117,20.375c1.075,0.413 1.608,1.617 1.191,2.692c-0.316,0.825 -1.108,1.329 -1.945,1.329Z" style="fill:#0c2b34;fill-rule:nonzero;"/><path d="M546.221,657.75c0.233,0.65 1.162,2.363 4.858,5.783c6.196,5.725 11.825,8.271 17.213,7.68c0.445,-0.042 0.891,-0.109 1.333,-0.2c-0.296,-1.263 -0.896,-2.434 -1.808,-3.438c-5.863,-6.425 -18.75,-10.492 -21.596,-9.825Zm-14.542,17.704c1.4,1.034 3.409,2.4 6.275,4.196c5.654,3.533 10.696,5.167 15.004,5.508c-6.908,-4.279 -15.937,-8.07 -21.279,-9.704Zm3.7,28.896c-6.354,0 -13.037,-1.446 -19.004,-4.95c-0.996,-0.587 -1.325,-1.858 -0.746,-2.854c0.584,-0.996 1.863,-1.317 2.854,-0.742c14.863,8.725 34.075,2.638 38.03,-3.721c0.458,-0.745 0.879,-1.691 0.612,-2.795c-5.879,0.625 -13.108,-0.934 -21.379,-6.109c-10.604,-6.625 -11.421,-8.596 -11.354,-10.175c0.041,-0.933 0.57,-1.746 1.42,-2.179c4.146,-2.104 22.938,6.558 30.771,11.704c1.025,0.675 1.892,1.404 2.592,2.179c3.463,-0.845 6.146,-2.633 7.929,-4.775c1.221,-1.466 2.042,-3.07 2.446,-4.675l-0.833,0.1c-6.663,0.675 -13.346,-2.187 -20.463,-8.766c-4.892,-4.521 -6.791,-7.638 -6.158,-10.109c0.2,-0.783 0.858,-2.187 2.991,-2.72c5.767,-1.434 19.992,4.629 25.809,11.004c1.308,1.433 2.2,3.121 2.671,4.933c5.437,-2.554 11.187,-8.283 17.996,-17.796c0.67,-0.937 1.97,-1.154 2.908,-0.483c0.933,0.667 1.15,1.971 0.483,2.908c-7.875,10.996 -14.437,17.229 -21.029,19.775c-0.258,2.934 -1.471,5.917 -3.621,8.5c-2.112,2.529 -5.192,4.704 -9.087,5.879c0.416,1.875 0.041,3.859 -1.167,5.796c-3.512,5.659 -13.587,10.071 -24.671,10.071Z" style="fill:#0c2b34;fill-rule:nonzero;"/><path d="M262.029,758.317l108.163,-189.867l30.179,164.733l-138.342,25.134Zm328.534,-59.684l-64.926,11.792l-58.945,-321.712l-125.263,22.754l-204.125,362.496l21.917,119.616l261.825,-47.562l17.925,97.837l125.266,-22.754l-17.924,-97.833l64.925,-11.8l-20.675,-112.834Z" style="fill:#3073ba;fill-rule:nonzero;"/><path d="M1113.43,366.829c-2.421,-22.225 -6.862,-41.971 -13.321,-59.241c-6.454,-17.267 -16.162,-34.2 -29.125,-50.788c-12.958,-16.592 -30.604,-30.987 -52.933,-43.192c-22.333,-12.2 -51.808,-20.695 -88.429,-25.47c-76.213,-9.93 -135.629,3.604 -178.254,40.587c-42.629,36.987 -70.675,107.833 -84.159,212.546c-5.483,42.587 -6.841,81.954 -4.066,118.104c2.758,36.142 9.391,65.217 19.904,87.217c14.379,30.912 34.729,55.6 61.037,74.05c26.305,18.45 62.346,30.666 108.125,36.633c81.655,10.633 142.167,-5.037 181.538,-47.033c39.366,-41.992 65.487,-112.967 78.354,-212.921c5.742,-44.588 6.183,-88.083 1.329,-130.492Z" style="fill:#3073ba;fill-rule:nonzero;"/><path d="M889.829,714.504c-10.021,-0.346 -20.687,-1.25 -31.7,-2.687c-38.142,-4.963 -67.654,-14.617 -87.721,-28.696c-19.795,-13.883 -34.779,-32.15 -45.8,-55.858l-0.208,-0.43c-8.008,-16.762 -13.242,-40.641 -15.558,-70.95c-2.521,-32.866 -1.234,-69.458 3.825,-108.762c14.87,-115.5 45.587,-163.696 68.737,-183.779c26.992,-23.417 63.421,-34 111.375,-32.354c9.825,0.333 20.229,1.212 30.917,2.6c30.783,4.008 55.133,10.82 72.383,20.241c16.704,9.129 29.754,19.625 38.788,31.188c10.016,12.821 17.52,25.812 22.308,38.621c5.096,13.625 8.692,29.829 10.692,48.154c4.437,38.791 4.016,78.975 -1.221,119.675c-11.554,89.746 -33.875,152.804 -66.333,187.421c-24.08,25.687 -60.217,37.337 -110.475,35.616l-0.009,0Z" style="fill:#0c2b34;fill-rule:nonzero;"/><path d="M864.725,419.188c-34.563,-1.184 -61.629,-30.167 -60.442,-64.734c1.184,-34.6 30.171,-61.662 64.734,-60.479c34.562,1.183 61.629,30.167 60.441,64.771c-1.183,34.567 -30.171,61.625 -64.733,60.442Zm106.646,-51.125l0.542,-15.784l-9.692,-3.166c-0.396,-5.392 -1.3,-10.717 -2.584,-15.85l8.213,-6.055l-5.575,-14.82l-10.163,0.816c-2.42,-4.791 -5.266,-9.354 -8.454,-13.633l5.263,-8.783l-10.821,-11.538l-9.079,4.646c-4.092,-3.475 -8.404,-6.625 -13.021,-9.408l1.471,-10.084l-14.408,-6.537l-6.6,7.737c-5.034,-1.629 -10.242,-2.85 -15.634,-3.662l-2.458,-9.884l-15.821,-0.541l-3.125,9.687c-5.437,0.442 -10.721,1.304 -15.85,2.588l-6.1,-8.171l-14.821,5.537l0.817,10.159c-4.792,2.462 -9.354,5.308 -13.629,8.495l-8.742,-5.258l-11.587,10.775l4.649,9.121c-3.475,4.05 -6.624,8.404 -9.366,13.021l-10.079,-1.513l-6.58,14.409l7.775,6.604c-1.629,5.033 -2.895,10.279 -3.662,15.633l-9.925,2.492l-0.538,15.783l9.73,3.171c0.396,5.433 1.3,10.717 2.583,15.846l-8.212,6.058l5.579,14.825l10.158,-0.821c2.421,4.796 5.267,9.35 8.458,13.634l-5.266,8.779l10.821,11.542l9.083,-4.65c4.05,3.474 8.4,6.629 13.017,9.412l-1.513,10.079l14.408,6.538l6.646,-7.734c5.029,1.63 10.242,2.85 15.634,3.663l2.454,9.879l15.825,0.542l3.125,-9.692c5.433,-0.437 10.716,-1.296 15.845,-2.583l6.059,8.171l14.825,-5.538l-0.783,-10.154c4.795,-2.463 9.316,-5.313 13.637,-8.5l8.738,5.262l11.587,-10.779l-4.646,-9.117c3.471,-4.049 6.621,-8.404 9.367,-13.024l10.079,1.516l6.579,-14.408l-7.779,-6.604c1.633,-5.029 2.896,-10.238 3.662,-15.634l9.884,-2.495Z" style="fill:#3073ba;fill-rule:nonzero;"/><path d="M964.796,716l-10.638,-1.192l-1.179,-6.82c-0.258,-0.059 -0.516,-0.117 -0.771,-0.18c19.542,-5.845 35.484,-15.454 48.105,-28.92c13.137,-14.013 24.616,-32.684 34.391,-55.9l2.079,7.225l-5.833,3.7c0.613,3.533 0.925,7.154 0.946,10.812l6.396,2.604l-1.142,10.642l-6.867,1.179c-0.804,3.483 -1.85,6.908 -3.233,10.321l4.904,4.85l-5.146,9.379l-6.729,-1.496c-2.15,3 -4.487,5.746 -7.012,8.292l2.708,6.383l-8.375,6.688l-5.613,-3.996c-3.091,1.942 -6.316,3.583 -9.633,4.983l0.008,6.921l-10.245,3.017l-3.7,-5.879c-3.58,0.608 -7.2,0.97 -10.809,0.991l-2.612,6.396Z" style="fill:#3073ba;fill-rule:nonzero;"/><path d="M937.758,709.667l-9.379,-5.15l1.546,-6.779c-3,-2.096 -5.746,-4.438 -8.296,-6.959l-6.429,2.704l-6.688,-8.375l3.996,-5.662c-1.941,-3.042 -3.583,-6.267 -4.983,-9.583l-6.925,0.008l-3.012,-10.296l5.883,-3.696c-0.613,-3.533 -0.975,-7.154 -0.95,-10.762l-6.392,-2.659l1.142,-10.637l6.817,-1.129c0.804,-3.534 1.895,-6.959 3.283,-10.375l-4.904,-4.85l5.145,-9.379l6.726,1.5c2.104,-3 4.487,-5.746 6.966,-8.296l-2.658,-6.384l8.317,-6.687l5.67,4c3.092,-1.942 6.317,-3.588 9.634,-4.983l-0.059,-6.93l10.296,-3.008l3.7,5.879c3.579,-0.612 7.15,-0.975 10.809,-0.996l2.608,-6.391l10.637,1.191l1.184,6.813c3.483,0.804 6.958,1.85 10.321,3.279l4.9,-4.95l9.379,5.146l-1.55,6.779c3.004,2.1 5.75,4.438 8.296,6.963l6.383,-2.659l6.687,8.325l-3.95,5.667c1.946,3.037 3.588,6.267 4.984,9.629l6.925,-0.054l0.887,3.067c-9.775,23.216 -21.254,41.887 -34.391,55.9c-12.621,13.466 -28.563,23.075 -48.105,28.92c-3.225,-0.775 -6.437,-1.766 -9.554,-3.045l-4.896,4.904Zm29.434,-83.346c-6.554,-0 -12.9,3.475 -16.28,9.629c-4.941,9 -1.67,20.321 7.325,25.267c2.834,1.554 5.892,2.291 8.913,2.291c6.579,0 12.971,-3.5 16.358,-9.67c4.938,-8.996 1.621,-20.275 -7.379,-25.213c-2.842,-1.562 -5.912,-2.304 -8.937,-2.304Z" style="fill:#0f4d7b;fill-rule:nonzero;"/><path d="M1013.97,518.004c-16.4,-0.562 -29.209,-14.329 -28.65,-30.679c0.562,-16.4 14.283,-29.212 30.679,-28.65c16.4,0.558 29.212,14.279 28.65,30.683c-0.559,16.35 -14.284,29.209 -30.679,28.646Zm82.212,-40.1l-12.421,-8.579l-0.008,-0.029c-1.229,-4.513 -2.925,-8.858 -4.996,-12.938l3.184,-12.487l-18.013,-19.292l-12.683,2.321c-3.925,-2.346 -8.142,-4.329 -12.554,-5.867l-0.034,-0.008l-7.708,-12.979l-26.383,-0.904l-8.576,12.416l-0.05,0.013c-4.508,1.229 -8.845,2.921 -12.92,4.987l-12.484,-3.183l-19.296,18.021l2.321,12.654l-0.008,0.012c-2.392,3.971 -4.333,8.188 -5.867,12.601l-12.979,7.708l-0.904,26.383l12.429,8.579c1.229,4.546 2.871,8.88 4.983,12.996l0,0.004l-3.17,12.45l18.012,19.296l12.604,-2.308c3.975,2.35 8.196,4.342 12.667,5.875l0.008,0.004l7.7,12.963l26.379,0.904l8.571,-12.409c4.563,-1.229 8.904,-2.925 13.034,-5l0.004,0l12.425,3.167l19.292,-18.012l-2.317,-12.659c2.392,-3.971 4.333,-8.191 5.866,-12.608l12.988,-7.713l0.904,-26.379Z" style="fill:#fff;fill-rule:nonzero;"/><path d="M1165.61,240.358c-1.084,-6.07 2.962,-11.854 9.012,-12.937c6.067,-1.088 11.85,2.942 12.933,9.008c1.088,6.063 -2.941,11.85 -9.008,12.938c-6.05,1.079 -11.85,-2.946 -12.937,-9.009Zm21.199,27.025l2.175,-5.233l0.009,-0.008c1.558,-0.804 3.021,-1.771 4.358,-2.854l4.834,0.187l5.666,-8.137l-1.85,-4.471c0.55,-1.63 0.95,-3.329 1.163,-5.075l0.004,-0.013l4.158,-3.85l-1.746,-9.758l-5.237,-2.171l-0.009,-0.017c-0.804,-1.558 -1.766,-3.016 -2.849,-4.354l0.187,-4.833l-8.137,-5.663l-4.463,1.846l-0.004,-0.004c-1.646,-0.562 -3.35,-0.942 -5.092,-1.158l-3.85,-4.159l-9.758,1.746l-2.175,5.242c-1.571,0.804 -3.034,1.754 -4.379,2.85l-4.821,-0.184l-5.667,8.134l1.842,4.446c-0.55,1.646 -0.95,3.354 -1.163,5.112l0,0.004l-4.154,3.85l1.746,9.759l5.233,2.166c0.809,1.58 1.775,3.042 2.859,4.392l0.004,0.004l-0.184,4.809l8.134,5.67l4.462,-1.85c1.65,0.567 3.35,0.946 5.092,1.163l0.004,-0l3.854,4.158l9.754,-1.746Z" style="fill:#3073ba;fill-rule:nonzero;"/><path d="M1072.5,239.738l-3.179,-2.684c5.529,-6.554 13.375,-14.854 25.033,-20.958l1.929,3.696c-12.425,6.504 -20.383,15.925 -23.783,19.946Z" style="fill:#3073ba;fill-rule:nonzero;"/><path d="M1105.77,216.042l-1.646,-3.834c15.762,-6.75 32.229,-9.383 48.912,-7.833l-0.387,4.15c-16,-1.525 -31.767,1.033 -46.879,7.517Z" style="fill:#3073ba;fill-rule:nonzero;"/><path d="M1097.9,244.867l-3.446,-2.346c8.558,-12.571 25.471,-23.513 41.133,-26.621l0.809,4.087c-14.675,2.913 -30.504,13.142 -38.496,24.88Z" style="fill:#3073ba;fill-rule:nonzero;"/><path d="M775.662,532.129c-7.574,11.434 -10.245,25.134 -7.512,38.575c2.729,13.442 10.529,25.017 21.962,32.596c23.609,15.638 55.538,9.171 71.171,-14.425c15.642,-23.6 9.171,-55.542 -14.425,-71.196c-23.591,-15.637 -55.529,-9.158 -71.196,14.45Zm42.742,83.867c-10.533,-0 -21.175,-2.979 -30.596,-9.221c-12.358,-8.192 -20.791,-20.708 -23.741,-35.242c-2.955,-14.533 -0.067,-29.341 8.12,-41.704l0.005,0c16.937,-25.521 51.466,-32.529 76.966,-15.625c25.513,16.925 32.509,51.454 15.6,76.971c-10.666,16.1 -28.35,24.821 -46.354,24.821Zm-20.492,13.483l0.588,0.084c4.462,1.312 9.104,2.179 13.796,2.566c0.504,0.042 0.975,0.267 1.325,0.629l8.479,8.742l24.592,-4.987l4.416,-11.384c0.184,-0.471 0.534,-0.862 0.979,-1.096c4.18,-2.175 8.126,-4.766 11.73,-7.708c0.379,-0.312 0.808,-0.521 1.35,-0.471l14.458,0.221l13.862,-20.917l-5.849,-13.262c-0.2,-0.45 -0.23,-0.954 -0.092,-1.425c1.316,-4.546 2.179,-9.188 2.562,-13.796c0.042,-0.504 0.263,-0.971 0.625,-1.325l8.75,-8.483l-4.987,-24.588l-11.363,-4.408c-0.483,-0.188 -0.879,-0.546 -1.108,-1.008c-2.167,-4.167 -4.763,-8.1 -7.712,-11.692c-0.313,-0.383 -0.484,-0.863 -0.476,-1.354l0.221,-14.475l-20.912,-13.863l-13.234,5.838c-0.45,0.191 -0.95,0.225 -1.42,0.096c-4.517,-1.313 -9.175,-2.175 -13.846,-2.567c-0.504,-0.042 -0.971,-0.267 -1.321,-0.625l-8.475,-8.734l-24.588,4.988l-4.404,11.363c-0.183,0.47 -0.533,0.862 -0.983,1.091c-4.15,2.163 -8.1,4.763 -11.738,7.729c-0.379,0.309 -0.887,0.53 -1.354,0.475l-14.458,-0.225l-13.858,20.921l5.841,13.242c0.25,0.571 0.234,1.221 -0.041,1.775c-1.175,4.162 -2.038,8.812 -2.43,13.475c-0.041,0.5 -0.262,0.967 -0.624,1.321l-8.742,8.479l4.983,24.592l11.358,4.4c0.509,0.195 0.917,0.583 1.142,1.07c2.159,4.134 4.746,8.059 7.679,11.63c0.313,0.383 0.488,0.87 0.48,1.362l-0.221,14.467l20.916,13.866l13.263,-5.85l0.841,-0.179Zm23.488,16.371c-0.558,0 -1.1,-0.221 -1.496,-0.633l-8.737,-9.004c-4.45,-0.421 -8.85,-1.238 -13.104,-2.442l-13.617,6.004c-0.646,0.3 -1.396,0.221 -1.992,-0.167l-22.812,-15.125c-0.592,-0.391 -0.942,-1.054 -0.934,-1.766l0.23,-14.85c-2.771,-3.45 -5.246,-7.192 -7.363,-11.154l-11.688,-4.53c-0.658,-0.258 -1.145,-0.833 -1.287,-1.529l-5.438,-26.821c-0.141,-0.695 0.084,-1.416 0.592,-1.912l9.004,-8.733c0.417,-4.425 1.234,-8.834 2.434,-13.121l-6,-13.6c-0.288,-0.65 -0.221,-1.4 0.171,-1.992l15.12,-22.817c0.392,-0.591 0.946,-0.958 1.771,-0.933l14.838,0.229c3.483,-2.783 7.233,-5.254 11.162,-7.354l4.533,-11.692c0.259,-0.662 0.834,-1.15 1.53,-1.291l26.82,-5.438c0.7,-0.137 1.417,0.084 1.913,0.588l8.725,8.996c4.433,0.416 8.846,1.237 13.138,2.437l13.595,-5.992c0.646,-0.287 1.396,-0.22 1.992,0.171l22.812,15.121c0.592,0.392 0.942,1.058 0.93,1.771l-0.225,14.854c2.775,3.454 5.241,7.196 7.35,11.146l11.695,4.537c0.667,0.255 1.15,0.83 1.292,1.525l5.438,26.821c0.141,0.696 -0.084,1.417 -0.592,1.913l-9.008,8.737c-0.413,4.379 -1.229,8.775 -2.438,13.1l6.004,13.617c0.288,0.65 0.225,1.404 -0.166,1.996l-15.121,22.808c-0.392,0.592 -1.017,0.888 -1.767,0.933l-14.846,-0.225c-3.458,2.759 -7.204,5.221 -11.15,7.33l-4.541,11.716c-0.259,0.667 -0.838,1.15 -1.529,1.292l-26.825,5.442l-0.413,0.037Z" style="fill:#fff;fill-rule:nonzero;"/><path d="M1284.17,691.579l161.491,-147.2l-22.149,166.009l-139.342,-18.809Zm330.908,44.659l-65.392,-8.825l43.25,-324.201l-126.17,-17.025l-306.054,281.771l-16.084,120.542l263.717,35.592l-13.154,98.591l126.175,17.025l13.15,-98.587l65.396,8.821l15.166,-113.704Z" style="fill:#3073ba;fill-rule:nonzero;"/><path d="M1483.03,936.621l-0.379,-0.033c-1.129,-0.209 -1.879,-1.296 -1.671,-2.425l97.192,-533.038c0.204,-1.129 1.3,-1.837 2.421,-1.679c1.133,0.208 1.883,1.296 1.675,2.425l-97.192,533.037c-0.183,1.009 -1.058,1.713 -2.046,1.713Z" style="fill:#0c2b34;fill-rule:nonzero;"/><path d="M1569.27,410.075c-0.063,1.883 -1.642,3.358 -3.529,3.296c-1.884,-0.067 -3.359,-1.65 -3.296,-3.533c0.066,-1.884 1.646,-3.359 3.529,-3.296c1.887,0.066 3.362,1.645 3.296,3.533Z" style="fill:#0c2b34;fill-rule:nonzero;"/><path d="M1555.38,482.158c-0.066,1.884 -1.645,3.359 -3.529,3.296c-1.887,-0.062 -3.362,-1.646 -3.296,-3.529c0.063,-1.883 1.646,-3.362 3.53,-3.296c1.883,0.063 3.358,1.646 3.295,3.529Z" style="fill:#0c2b34;fill-rule:nonzero;"/><path d="M1541.5,554.246c-0.063,1.883 -1.646,3.358 -3.529,3.296c-1.884,-0.067 -3.359,-1.646 -3.296,-3.534c0.067,-1.883 1.646,-3.358 3.529,-3.295c1.888,0.066 3.363,1.65 3.296,3.533Z" style="fill:#0c2b34;fill-rule:nonzero;"/><path d="M1514.19,629.288c-0.063,1.883 -1.642,3.358 -3.53,3.295c-1.883,-0.066 -3.358,-1.645 -3.295,-3.529c0.066,-1.883 1.645,-3.358 3.529,-3.296c1.887,0.067 3.362,1.646 3.296,3.53Z" style="fill:#0c2b34;fill-rule:nonzero;"/><path d="M1513.73,698.421c-0.063,1.883 -1.642,3.354 -3.529,3.296c-1.884,-0.067 -3.359,-1.65 -3.292,-3.534c0.063,-1.883 1.642,-3.362 3.525,-3.295c1.888,0.066 3.363,1.645 3.296,3.533Z" style="fill:#0c2b34;fill-rule:nonzero;"/><path d="M1499.84,770.504c-0.067,1.888 -1.646,3.359 -3.53,3.296c-1.883,-0.062 -3.362,-1.646 -3.295,-3.529c0.062,-1.883 1.645,-3.358 3.529,-3.296c1.883,0.063 3.358,1.646 3.296,3.529Z" style="fill:#0c2b34;fill-rule:nonzero;"/><path d="M1485.95,842.592c-0.062,1.883 -1.642,3.362 -3.525,3.296c-1.887,-0.063 -3.362,-1.646 -3.3,-3.53c0.067,-1.887 1.646,-3.358 3.529,-3.295c1.888,0.062 3.363,1.645 3.296,3.529Z" style="fill:#0c2b34;fill-rule:nonzero;"/><path d="M1472.07,914.679c-0.063,1.884 -1.646,3.363 -3.529,3.296c-1.884,-0.067 -3.359,-1.65 -3.296,-3.533c0.066,-1.884 1.646,-3.354 3.529,-3.296c1.883,0.067 3.362,1.65 3.296,3.533Z" style="fill:#0c2b34;fill-rule:nonzero;"/><path d="M1510.78,631.254c-0.962,0 -1.825,-0.666 -2.033,-1.646c-0.242,-1.125 0.471,-2.229 1.596,-2.475l10.35,-2.22c1.141,-0.225 2.233,0.47 2.475,1.604c0.241,1.121 -0.475,2.229 -1.6,2.475l-10.35,2.221l-0.438,0.041Z" style="fill:#0c2b34;fill-rule:nonzero;"/><path d="M1545.33,592.871c-0,-0 -9.325,24.287 -12.463,39c-3.141,14.717 -3.329,47.604 -3.329,47.604" style="fill:#0c2b34;fill-rule:nonzero;"/><path d="M1529.53,681.558l-0.012,0c-1.15,-0.008 -2.079,-0.945 -2.071,-2.095c0.008,-1.35 0.225,-33.271 3.375,-48.03c3.138,-14.704 12.171,-38.312 12.554,-39.312c0.413,-1.071 1.613,-1.604 2.692,-1.196c1.075,0.408 1.612,1.617 1.2,2.688c-0.096,0.245 -9.304,24.308 -12.371,38.691c-3.058,14.346 -3.283,46.859 -3.283,47.184c-0.009,1.145 -0.938,2.07 -2.084,2.07Z" style="fill:#0c2b34;fill-rule:nonzero;"/><path d="M767.687,1041.2c5.788,-93.342 -4.858,-263.025 170.6,-240.562c188.067,24.07 134.263,243.983 134.263,243.983l-304.863,-3.421Z" style="fill:#0c2b34;fill-rule:nonzero;"/><path d="M965.342,908.529c-0,42.288 -34.284,76.563 -76.563,76.563c-42.287,-0 -76.567,-34.275 -76.567,-76.563c0,-42.283 34.28,-76.562 76.567,-76.562c42.279,-0 76.563,34.279 76.563,76.562Z" style="fill:#fff;fill-rule:nonzero;"/><path d="M898.833,832.092c-36.262,-6.2 -75.041,20.533 -78.862,47.616l143.779,13.221c-5.067,-30.871 -36.142,-55.929 -64.917,-60.837Z" style="fill:#0c2b34;fill-rule:nonzero;"/><path d="M947.371,906.625c-1.029,20.017 -11.938,35.729 -24.367,35.088c-12.429,-0.638 -21.671,-17.384 -20.641,-37.396c1.025,-20.017 11.933,-35.729 24.362,-35.088c12.429,0.634 21.675,17.379 20.646,37.396Z" style="fill:#0c2b34;fill-rule:nonzero;"/><path d="M888.779,836.133c-39.921,0 -72.4,32.475 -72.4,72.396c0,39.921 32.479,72.396 72.4,72.396c39.917,0 72.396,-32.475 72.396,-72.396c0,-39.921 -32.479,-72.396 -72.396,-72.396Zm0,153.125c-44.516,0 -80.733,-36.212 -80.733,-80.729c-0,-44.512 36.217,-80.729 80.733,-80.729c44.513,0 80.729,36.217 80.729,80.729c0,44.517 -36.216,80.729 -80.729,80.729Z" style="fill:#3073ba;fill-rule:nonzero;"/><path d="M1057.79,1006.87l-4.17,-0.092c2.116,-21.846 2.746,-53.162 -4.859,-84.675c-0.271,-1.117 0.417,-2.242 1.534,-2.512c0.158,-0.038 0.316,-0.055 0.471,-0.055c0.941,0 1.812,0.63 2.041,1.592c7.7,31.875 7.108,63.546 4.983,85.742Z" style="fill:#5d6c71;fill-rule:nonzero;"/><path d="M1039.55,890.858c-0.792,0 -1.546,-0.45 -1.896,-1.216c-5.358,-11.688 -12.004,-22.425 -19.758,-31.904c-0.725,-0.892 -0.596,-2.2 0.295,-2.93c0.388,-0.32 0.855,-0.475 1.321,-0.475c0.6,0 1.2,0.263 1.613,0.767c7.975,9.754 14.812,20.792 20.317,32.808c0.483,1.046 0.02,2.284 -1.025,2.759l-0.867,0.191Z" style="fill:#5d6c71;fill-rule:nonzero;"/><path d="M377.2,1479.02c-0.521,-0 -1.033,-0.004 -1.55,-0.017c-11.504,-0.321 -20.571,-9.9 -20.254,-21.4c0.312,-11.5 9.787,-20.396 21.392,-20.254l0.404,0.004c12.037,0 40.996,-14.621 101.575,-110.121c3.258,-5.129 8.587,-8.583 14.6,-9.458c6.02,-0.854 12.104,0.929 16.687,4.917c74.754,65.175 153.971,105.75 154.763,106.15c10.258,5.208 14.35,17.75 9.145,28.004c-5.208,10.258 -17.745,14.362 -27.999,9.15c-3.146,-1.592 -72.388,-36.996 -144.992,-96.442c-50.775,76.329 -88.454,109.467 -123.771,109.467Z" style="fill:#0c2b34;fill-rule:nonzero;"/><path d="M506.096,1318.95c-0.588,-0 -1.183,-0.038 -1.783,-0.125c-6.834,-0.975 -11.584,-7.308 -10.605,-14.142c2.963,-20.737 -0.712,-98.441 -26.979,-158.858c-2.396,-5.508 -0.537,-11.938 4.425,-15.317c57.075,-38.896 178.65,-43.546 183.8,-43.725c6.863,-0.15 12.684,5.159 12.925,12.054c0.242,6.9 -5.158,12.688 -12.054,12.93c-1.129,0.041 -107.417,4.116 -162.033,34.175c23.266,60.158 28.537,135.15 24.662,162.279c-0.892,6.233 -6.237,10.729 -12.358,10.729Z" style="fill:#0c2b34;fill-rule:nonzero;"/><path d="M527.096,1302.77c-8.317,-19.609 -45.784,-17.384 -67.783,-0.579c-11.759,8.979 -27.671,36.004 -29.346,45.795c-1.671,9.796 5.116,18.671 16.766,17.659c14.363,-1.242 34.088,-22.117 34.088,-22.117c-13.121,12.867 3.808,21.942 29.071,3.342c14.012,-10.325 26.512,-22.146 17.204,-44.1Z" style="fill:#3073ba;fill-rule:nonzero;"/><path d="M1285.5,957.029c1.875,0.7 4.004,1.113 5.988,1.346c20.758,2.458 39.091,-0.446 41.833,-3.033c-0.709,-0.642 -3.504,-2.425 -13.871,-4.409c-13.679,-2.604 -25.629,0.825 -33.95,6.096Zm-5.258,23.425l1.079,0.292c14.708,3.604 34.575,4.217 41.387,3.1c-2.112,-0.892 -6.421,-2.317 -15.15,-4.242c-11.554,-2.546 -20.587,-1.754 -27.316,0.85Zm-13.892,27.367c1.15,2.133 2.862,3.892 5.083,5.071c9.4,5.004 27.9,6.15 34.838,3.35c1.421,-0.575 1.633,-1.05 1.633,-1.054c0,-0.013 -0.229,-2.342 -10.421,-6.705c-11.679,-4.995 -20.996,-5.695 -28.462,-2.158c-0.913,0.438 -1.804,0.933 -2.671,1.496Zm-22.604,38.883l-0.579,-0.083c-1.104,-0.317 -1.742,-1.475 -1.425,-2.575c5.55,-19.333 11.612,-31.146 19.583,-37.713c-1.221,-4.15 -1.083,-8.916 0.638,-13.579c1.675,-4.537 4.912,-9.046 9.837,-12.521c-2.413,-2.608 -3.308,-6.02 -2.458,-9.92c0.945,-4.338 4.1,-9.042 8.9,-13.155c-1.884,-2.166 -2.346,-4.533 -2.363,-6.279c-0.104,-12.429 22.95,-31.358 49.013,-34.912c1.141,-0.213 2.191,0.637 2.345,1.779c0.155,1.142 -0.645,2.192 -1.787,2.346c-24.738,3.375 -45.483,21.287 -45.404,30.75c0.012,1.533 0.583,2.766 1.508,3.762c9.384,-6.529 23.229,-10.729 38.675,-7.762c12.792,2.446 17.992,5.146 17.388,9.029c-1.134,7.304 -28.371,8.812 -46.625,6.637c-4.134,-0.491 -7.163,-1.466 -9.375,-2.687c-4.538,3.712 -7.442,7.879 -8.205,11.375c-0.679,3.125 0.33,5.3 2.063,6.817c7.738,-3.988 18.625,-5.655 32.983,-2.48c18.904,4.171 19.613,6.475 20.034,7.846c0.304,0.984 0.058,1.988 -0.671,2.759c-3.983,4.22 -32.942,2.22 -47.492,-1.346c-1.891,-0.463 -3.566,-1.096 -5.008,-1.879c-4.825,3.033 -7.921,7.137 -9.45,11.283c-1.225,3.325 -1.504,6.637 -0.938,9.596c0.75,-0.45 1.513,-0.854 2.296,-1.229c8.621,-4.092 19.05,-3.409 31.892,2.087c8.521,3.65 12.629,6.875 12.929,10.163c0.092,0.975 -0.1,2.833 -2.375,4.341c-6.354,4.221 -28.625,3.584 -40.204,-2.583c-2.729,-1.458 -4.892,-3.604 -6.408,-6.192c-6.813,6.221 -12.305,17.359 -17.317,34.813c-0.263,0.916 -1.096,1.512 -2,1.512Z" style="fill:#0c2b34;fill-rule:nonzero;"/><path d="M701.337,1472.06c2.742,-0.875 1.826,-3.525 -1.241,-3.525l-56.413,-0c-107.42,-11.38 -182.475,3.87 -135.179,7.462c47.292,3.596 -3.333,2.842 -37.871,15.904c-34.533,13.067 256.892,16.363 283.4,0c24.446,-15.083 -90.762,-7.641 -52.696,-19.841Z" style="fill:#0c2b34;fill-rule:nonzero;"/><path d="M1105.26,1488.69l-490.841,-16.275l-20.371,-475.921l579.629,12.962l-68.417,479.234Z" style="fill:#3073ba;fill-rule:nonzero;"/><path d="M767.687,1479.58c-1.075,0 -1.987,-0.82 -2.075,-1.912l-39.35,-478.004c-0.091,-1.146 0.759,-2.15 1.909,-2.246c1.175,-0.063 2.154,0.758 2.246,1.904l39.35,478.004c0.091,1.15 -0.759,2.154 -1.909,2.246l-0.171,0.008Z" style="fill:#0c2b34;fill-rule:nonzero;"/><path d="M1105.26,1488.69l131.925,-20.088l41.555,-442.541l-105.063,-16.605l-68.417,479.234Z" style="fill:#3073ba;fill-rule:nonzero;"/><path d="M1105.26,1488.69l5.154,-36.1c0.567,-0.017 1.126,-0.025 1.667,-0.025c15.858,-0 21.384,7.187 21.688,7.608c-0.342,-0.471 -0.479,-0.762 -0.479,-0.762l35.866,-21.205c-0.783,-1.325 -15.625,-25.52 -52.804,-27.229l57.325,-401.521l105.063,16.605l-14.221,151.425l-0.096,1.041l-17.45,185.829l-0.096,1.042l-4.171,44.404l-0.096,1.042l-5.425,57.758l-131.925,20.088Z" style="fill:#1f68b3;fill-rule:nonzero;"/><path d="M656.362,1380.68l-12.099,-282.762c-1.263,-29.508 22.683,-53.954 52.216,-53.292l366.913,8.204c30.637,0.688 53.791,27.996 49.462,58.334l-40.679,284.966c-3.687,25.825 -26.229,44.73 -52.3,43.867l-314.129,-10.412c-26.717,-0.888 -48.238,-22.205 -49.384,-48.905Z" style="fill:#0c2b34;fill-rule:nonzero;"/><path d="M696,1131.4l56.767,1.804l-0.467,14.638l-35.538,-1.129l-0.345,10.891l32.966,1.05l-0.446,13.979l-32.966,-1.045l-0.429,13.512l36.566,1.167l-0.496,15.521l-57.791,-1.838l2.179,-68.55Z" style="fill:#fff;fill-rule:nonzero;"/><path d="M785.879,1162.06l8.929,0.283c0.967,0.029 2.846,-0.221 5.642,-0.754c1.413,-0.238 2.579,-0.917 3.504,-2.042c0.925,-1.125 1.413,-2.437 1.458,-3.933c0.071,-2.213 -0.575,-3.934 -1.941,-5.163c-1.363,-1.229 -3.979,-1.908 -7.846,-2.029l-9.304,-0.3l-0.442,13.938Zm-22.575,40.095l2.183,-68.55l35.3,1.125c6.551,0.209 11.534,0.93 14.959,2.163c3.425,1.229 6.146,3.4 8.171,6.508c2.025,3.109 2.966,6.842 2.825,11.204c-0.121,3.805 -1.038,7.059 -2.746,9.767c-1.709,2.708 -4.009,4.875 -6.904,6.496c-1.842,1.033 -4.35,1.862 -7.525,2.479c2.496,0.925 4.308,1.825 5.433,2.7c0.763,0.588 1.854,1.825 3.275,3.713c1.421,1.887 2.367,3.337 2.829,4.354l9.629,20.191l-23.937,-0.766l-10.654,-21.309c-1.35,-2.754 -2.571,-4.558 -3.667,-5.404c-1.496,-1.108 -3.208,-1.691 -5.142,-1.754l-1.866,-0.062l-0.888,27.825l-21.275,-0.68Z" style="fill:#fff;fill-rule:nonzero;"/><path d="M860.367,1164.43l8.929,0.288c0.967,0.033 2.846,-0.221 5.642,-0.759c1.412,-0.233 2.583,-0.916 3.504,-2.037c0.925,-1.129 1.412,-2.438 1.458,-3.933c0.071,-2.217 -0.575,-3.938 -1.942,-5.167c-1.362,-1.229 -3.979,-1.904 -7.846,-2.025l-9.304,-0.296l-0.441,13.929Zm-22.575,40.1l2.183,-68.55l35.304,1.125c6.546,0.209 11.529,0.929 14.954,2.159c3.425,1.233 6.146,3.404 8.171,6.508c2.025,3.108 2.967,6.846 2.825,11.208c-0.121,3.804 -1.033,7.059 -2.742,9.767c-1.712,2.708 -4.012,4.871 -6.904,6.5c-1.845,1.033 -4.354,1.854 -7.529,2.471c2.496,0.925 4.309,1.825 5.438,2.704c0.758,0.583 1.85,1.821 3.271,3.708c1.42,1.892 2.366,3.342 2.833,4.354l9.625,20.192l-23.938,-0.762l-10.654,-21.309c-1.346,-2.754 -2.571,-4.558 -3.667,-5.404c-1.491,-1.108 -3.208,-1.696 -5.137,-1.758l-1.871,-0.059l-0.887,27.825l-21.275,-0.679Z" style="fill:#fff;fill-rule:nonzero;"/><path d="M929.963,1173.29c-0.217,6.925 0.912,11.937 3.387,15.041c2.475,3.105 5.925,4.73 10.354,4.871c4.55,0.146 8.121,-1.225 10.708,-4.108c2.588,-2.879 4.005,-8.158 4.246,-15.825c0.209,-6.45 -0.945,-11.208 -3.45,-14.267c-2.512,-3.062 -5.991,-4.662 -10.45,-4.808c-4.275,-0.133 -7.75,1.271 -10.433,4.212c-2.683,2.942 -4.138,7.905 -4.362,14.884Zm-21.175,-0.763c0.358,-11.196 3.75,-19.808 10.183,-25.841c6.429,-6.038 15.212,-8.88 26.342,-8.525c11.412,0.362 20.104,3.704 26.083,10.025c5.975,6.325 8.787,15.004 8.437,26.037c-0.254,8.013 -1.812,14.538 -4.67,19.579c-2.863,5.042 -6.884,8.909 -12.071,11.6c-5.188,2.692 -11.584,3.913 -19.192,3.671c-7.729,-0.246 -14.088,-1.679 -19.075,-4.304c-4.992,-2.625 -8.971,-6.65 -11.95,-12.079c-2.979,-5.434 -4.342,-12.154 -4.087,-20.163Z" style="fill:#fff;fill-rule:nonzero;"/><path d="M1012.99,1169.29l8.929,0.287c0.967,0.029 2.846,-0.225 5.641,-0.758c1.413,-0.234 2.58,-0.917 3.505,-2.042c0.925,-1.129 1.412,-2.437 1.458,-3.929c0.071,-2.217 -0.575,-3.938 -1.942,-5.167c-1.366,-1.229 -3.979,-1.908 -7.845,-2.029l-9.305,-0.296l-0.441,13.934Zm-22.575,40.1l2.179,-68.555l35.308,1.125c6.546,0.213 11.529,0.93 14.954,2.163c3.425,1.229 6.15,3.404 8.171,6.508c2.025,3.109 2.967,6.846 2.825,11.204c-0.121,3.805 -1.033,7.063 -2.746,9.767c-1.708,2.713 -4.012,4.875 -6.904,6.5c-1.842,1.033 -4.35,1.858 -7.525,2.475c2.496,0.921 4.309,1.825 5.433,2.7c0.763,0.592 1.855,1.825 3.276,3.717c1.42,1.887 2.366,3.333 2.833,4.35l9.625,20.191l-23.938,-0.762l-10.654,-21.313c-1.35,-2.754 -2.571,-4.554 -3.667,-5.404c-1.491,-1.104 -3.208,-1.691 -5.141,-1.754l-1.867,-0.058l-0.887,27.825l-21.275,-0.679Z" style="fill:#fff;fill-rule:nonzero;"/><path d="M1024.13,1325.86c-1.483,0 -2.958,-0.6 -4.041,-1.779l-35.667,-39.037l-38.488,35.162c-2.229,2.042 -5.687,1.879 -7.729,-0.346l-35.666,-39.037l-38.488,35.162c-2.229,2.042 -5.691,1.884 -7.725,-0.345l-35.671,-39.038l-38.487,35.171c-1.067,0.979 -2.508,1.492 -3.934,1.429c-1.449,-0.067 -2.812,-0.704 -3.791,-1.775l-35.671,-39.037l-38.487,35.162c-2.225,2.038 -5.688,1.875 -7.726,-0.346c-2.037,-2.229 -1.879,-5.691 0.35,-7.725l42.521,-38.858c2.23,-2.046 5.692,-1.883 7.729,0.346l35.667,39.041l38.488,-35.17c1.07,-0.98 2.504,-1.484 3.937,-1.43c1.446,0.067 2.813,0.705 3.792,1.775l35.666,39.038l38.488,-35.163c2.225,-2.041 5.688,-1.883 7.729,0.346l35.667,39.038l38.487,-35.167c2.229,-2.046 5.688,-1.887 7.725,0.346l39.363,43.075c2.037,2.233 1.879,5.696 -0.35,7.729c-1.05,0.958 -2.371,1.433 -3.688,1.433Z" style="fill:#fff;fill-rule:nonzero;"/><path d="M364.762,1498.81l-26.075,-12.437l-23.262,-113.196l12.625,-13.904l36.712,139.537Z" style="fill:#3073ba;fill-rule:nonzero;"/><path d="M364.762,1498.81l34.605,-20.212l-29.667,-93.267l-41.65,-26.058l36.712,139.537Z" style="fill:#3073ba;fill-rule:nonzero;"/><path d="M364.762,1498.81l-36.712,-139.537l41.65,26.058l29.667,93.267l-34.605,20.212Z" style="fill:#1f68b3;fill-rule:nonzero;"/><path d="M932.258,1519.39c-0.983,-0 -1.946,-0.017 -2.879,-0.042c-11.504,-0.317 -20.571,-9.896 -20.254,-21.4c0.312,-11.492 9.813,-20.533 21.396,-20.25c32.096,1.05 100.025,-18.667 138.829,-56.333c2.4,-2.33 5.321,-4.046 8.525,-5.009c65.783,-19.741 90.271,20.142 91.279,21.854l-35.866,21.205c-0,-0 0.137,0.291 0.479,0.762c-0.396,-0.55 -9.713,-12.662 -39.38,-5.167c-48.695,44.45 -123.445,64.38 -162.129,64.38Z" style="fill:#0c2b34;fill-rule:nonzero;"/><path d="M929.946,1547.08l-75.883,-4.779l-5.988,-139.9l101.987,3.808l-20.116,140.871Z" style="fill:#3073ba;fill-rule:nonzero;"/><path d="M929.946,1547.08l17.742,-17.65l10.995,-87.233l-8.621,-35.988l-20.116,140.871Z" style="fill:#3073ba;fill-rule:nonzero;"/><path d="M929.946,1547.08l20.116,-140.871l8.621,35.988l-10.995,87.233l-17.742,17.65Z" style="fill:#1f68b3;fill-rule:nonzero;"/><path d="M1369.6,1494.1c-2.633,0 -5.292,-0.833 -7.554,-2.55c-43.309,-32.916 -101.854,-91.358 -124.321,-147.737c-0.325,-0.821 -0.567,-1.679 -0.713,-2.554c-10.954,-65.138 -21.421,-202.255 -21.862,-208.063c-0.521,-6.879 4.637,-12.883 11.516,-13.404c6.867,-0.508 12.892,4.633 13.413,11.517c0.108,1.4 10.675,139.862 21.367,204.47c22.404,54.821 83.154,111.109 115.729,135.867c5.496,4.179 6.566,12.021 2.387,17.517c-2.458,3.233 -6.187,4.937 -9.962,4.937Z" style="fill:#0c2b34;fill-rule:nonzero;"/><path d="M1427.38,1500.42c-9.666,-0 -20.621,-4.384 -32.562,-13.021c-5.592,-4.05 -6.846,-11.863 -2.796,-17.454c4.05,-5.592 11.862,-6.846 17.454,-2.8c10.321,7.471 15.958,8.275 17.904,8.275c6.904,-0 12.5,5.596 12.5,12.5c0,6.904 -5.596,12.5 -12.5,12.5Z" style="fill:#0c2b34;fill-rule:nonzero;"/><path d="M1398.32,1487.04c13.375,-39.734 68.208,-31.879 87.091,-25.979c18.884,5.9 35.896,13.32 46.121,20.012c10.23,6.683 10.396,17.854 -3.241,24.233c-16.817,7.867 -59.009,0.884 -59.009,0.884c21.842,9.562 -0.041,24.887 -38.354,9.833c-12.471,-4.9 -37.329,-14.429 -32.608,-28.983Z" style="fill:#3073ba;fill-rule:nonzero;"/><path d="M1265.23,1150.35c-4.966,33.754 -32.916,58.65 -55.658,55.308c-22.742,-3.345 -23.683,-33.491 -18.725,-67.25c4.966,-33.758 13.958,-58.341 36.696,-54.991c22.741,3.341 42.65,33.175 37.687,66.933Z" style="fill:#0c2b34;fill-rule:nonzero;"/><path d="M718.696,1012.18c-0,1.888 -1.525,3.417 -3.413,3.417c-1.887,-0 -3.412,-1.529 -3.412,-3.417c-0,-1.883 1.525,-3.412 3.412,-3.412c1.888,-0 3.413,1.529 3.413,3.412Z" style="fill:#0c2b34;fill-rule:nonzero;"/><path d="M750.004,1036.77c0,1.887 -1.525,3.417 -3.412,3.417c-1.888,-0 -3.417,-1.53 -3.417,-3.417c-0,-1.883 1.529,-3.417 3.417,-3.417c1.887,0 3.412,1.534 3.412,3.417Z" style="fill:#0c2b34;fill-rule:nonzero;"/><path d="M753.825,1440.54c-0,1.887 -1.529,3.412 -3.413,3.412c-1.887,0 -3.416,-1.525 -3.416,-3.412c-0,-1.884 1.529,-3.413 3.416,-3.413c1.884,0 3.413,1.529 3.413,3.413Z" style="fill:#0c2b34;fill-rule:nonzero;"/><path d="M785.133,1465.14c0,1.887 -1.529,3.416 -3.416,3.416c-1.884,0 -3.413,-1.529 -3.413,-3.416c0,-1.888 1.529,-3.417 3.413,-3.417c1.887,-0 3.416,1.529 3.416,3.417Z" style="fill:#0c2b34;fill-rule:nonzero;"/><path d="M230.417,1464.37l-0.009,-0c-0.008,0.004 -1.562,0.792 -2.166,7.75c-0.609,7.012 0.666,11.762 3.891,14.517c0.734,0.629 1.567,1.154 2.496,1.579c1.179,-1.3 1.984,-2.763 2.267,-4.284c1.117,-6.037 -1.763,-14.879 -4.984,-18.458c-0.837,-0.929 -1.379,-1.104 -1.495,-1.104Zm-26.213,3.617c-0.025,1.566 0.121,4.2 0.742,8.579c0.841,5.946 3.037,10.516 6.325,13.425c-0.975,-8.367 -4.688,-18.054 -7.067,-22.004Zm-23.212,3.633c-0.242,0.637 -0.679,2.746 0.354,8.517c1.366,7.666 6.333,12.758 11.829,15.45c-0.025,-0.888 -0.192,-1.871 -0.483,-2.95c-3.271,-11.909 -9.496,-20.117 -11.7,-21.017Zm3.604,34.487c-9.917,0 -23.325,-6.008 -30.558,-16.454c-0.655,-0.941 -0.417,-2.241 0.529,-2.896c0.945,-0.658 2.241,-0.42 2.9,0.53c7.775,11.225 24.912,17.212 32.521,13.666c0.8,-0.375 1.445,-0.846 1.945,-1.412c-6.8,-3.142 -13.016,-9.292 -14.691,-18.671c-0.942,-5.283 -1.696,-12.421 2.662,-13.404c5.975,-1.342 13.796,13.108 16.804,24.062c0.555,2.029 0.73,3.904 0.542,5.596c2.633,0.721 5.225,0.908 7.446,0.588c1.8,-0.263 4.367,-1.005 5.725,-3.105c-5.063,-3.425 -8.467,-9.454 -9.604,-17.458c-1.613,-11.392 -0.405,-13.379 0.858,-14.35c0.825,-0.633 1.867,-0.75 2.867,-0.325c4.458,1.896 9.858,18.058 10.887,27.204c0.113,1.009 0.117,1.975 0.013,2.888c1.704,0.679 3.583,1.05 5.616,1.091c3.613,0.209 7.184,-0.941 10.042,-2.62c-0.592,-0.371 -1.15,-0.78 -1.675,-1.23c-4.325,-3.691 -6.067,-9.595 -5.333,-18.045c0.566,-6.53 2.05,-10.1 4.679,-11.221c0.921,-0.409 2.796,-0.792 5.029,0.996c4.5,3.595 8.704,14.991 7.192,23.154c-0.313,1.687 -1.042,3.308 -2.092,4.796c7.642,1.316 18.404,-0.83 27.683,-3.121c1.113,-0.271 2.246,0.404 2.521,1.521c0.275,1.12 -0.404,2.245 -1.521,2.525c-11.291,2.791 -23.45,5.062 -32.033,2.57c-3.817,3.034 -9.192,4.88 -14.575,4.842c-2.458,-0.05 -4.742,-0.487 -6.829,-1.283c-1.642,2.796 -4.7,4.687 -8.85,5.296c-2.767,0.412 -6.029,0.145 -9.325,-0.796c-0.938,1.562 -2.354,2.812 -4.221,3.687c-1.992,0.929 -4.442,1.375 -7.154,1.379Z" style="fill:#0c2b34;fill-rule:nonzero;"/><path d="M794.442,1537.6l11.291,-19.583l-11.291,-19.579l-12.088,-0l6.829,19.583l-6.829,19.579l12.088,0Z" style="fill:#0c2b34;fill-rule:nonzero;"/><path d="M783.15,1528.23c-5.625,0 -10.208,-4.583 -10.208,-10.208c-0,-5.625 4.583,-10.167 10.208,-10.167l-19.196,-3.841l-5.096,15.504l8.567,13.079l15.725,-4.367Z" style="fill:#0c2b34;fill-rule:nonzero;"/><path d="M773.5,1528.23c-5.625,0 -10.208,-4.583 -10.208,-10.208c-0,-5.625 4.583,-10.167 10.208,-10.167c5.625,0 10.167,4.542 10.167,10.167c-0,5.625 -4.542,10.208 -10.167,10.208Zm11.292,-29.787l-22.625,-0l-11.292,19.579l11.292,19.583l22.625,0l11.291,-19.583l-11.291,-19.579Z" style="fill:#3073ba;fill-rule:nonzero;"/><path d="M1582.01,1497.13l-8.383,-14.541l8.383,-14.542l8.98,0l-5.071,14.542l5.071,14.541l-8.98,0Z" style="fill:#3073ba;fill-rule:nonzero;"/><path d="M1590.4,1490.17c4.179,-0 7.583,-3.4 7.583,-7.579c0,-4.175 -3.404,-7.554 -7.583,-7.554l14.258,-2.85l3.783,11.512l-6.362,9.713l-11.679,-3.242Z" style="fill:#3073ba;fill-rule:nonzero;"/><path d="M1597.57,1490.17c4.175,-0 7.579,-3.4 7.579,-7.579c-0,-4.175 -3.404,-7.554 -7.579,-7.554c-4.18,-0 -7.555,3.379 -7.555,7.554c0,4.179 3.375,7.579 7.555,7.579Zm-8.388,-22.121l16.804,0l8.384,14.542l-8.384,14.541l-16.804,0l-8.387,-14.541l8.387,-14.542Z" style="fill:#0c2b34;fill-rule:nonzero;"/><path d="M1269.75,1516.44l18.825,-0c4.9,-0 8.913,-4.013 8.913,-8.917c-0,-4.9 -4.013,-8.908 -8.913,-8.908l-18.825,-0c-4.904,-0 -8.912,4.008 -8.912,8.908c-0,4.904 4.008,8.917 8.912,8.917Z" style="fill:#0c2b34;fill-rule:nonzero;"/><path d="M1239.68,1499.63c4.646,-9.862 15.917,-14.316 25.171,-9.954c9.254,4.367 12.987,15.892 8.342,25.754c-4.65,9.859 -15.921,14.313 -25.175,9.946c-9.254,-4.362 -12.988,-15.887 -8.338,-25.746Z" style="fill:#3073ba;fill-rule:nonzero;"/><path d="M1244.88,1525.35l5.163,2.437l17.95,-38.075l-5.163,-2.433l-17.95,38.071Z" style="fill:#0c2b34;fill-rule:nonzero;"/></svg>