<?xml version="1.0" encoding="UTF-8" standalone="no"?><!DOCTYPE svg PUBLIC "-//W3C//DTD SVG 1.1//EN" "http://www.w3.org/Graphics/SVG/1.1/DTD/svg11.dtd"><svg width="100%" height="100%" viewBox="0 0 2805 694" version="1.1" xmlns="http://www.w3.org/2000/svg" xmlns:xlink="http://www.w3.org/1999/xlink" xml:space="preserve" xmlns:serif="http://www.serif.com/" style="fill-rule:evenodd;clip-rule:evenodd;stroke-linejoin:round;stroke-miterlimit:2;"><g><path d="M86.137,607.59c-114.849,-114.849 -114.849,-301.334 -0,-416.183c114.848,-114.848 178.155,226.345 178.155,226.345c-0,0 352.876,74.989 238.027,189.838c-114.848,114.849 -301.334,114.849 -416.182,0Z" style="fill:#09006f;"/><path d="M615.405,86.137c-80.635,-80.635 -196.58,-104.656 -298.254,-72.066c-43.142,13.829 -83.715,37.851 -117.929,72.066c-114.849,114.848 226.345,178.155 226.345,178.155c-0,-0 74.989,352.876 189.838,238.027c114.848,-114.848 114.848,-301.334 -0,-416.182Z" style="fill:#95e5ff;"/></g><text x="832.26px" y="468.71px" style="font-family:'Mont-HeavyDEMO', 'Mont';font-weight:900;font-size:348.118px;fill:url(#_Linear1);">GameShop</text><defs><linearGradient id="_Linear1" x1="0" y1="0" x2="1" y2="0" gradientUnits="userSpaceOnUse" gradientTransform="matrix(-1961.44,-312.44,312.44,-1961.44,2804.74,525.305)"><stop offset="0" style="stop-color:#09006f;stop-opacity:1"/><stop offset="0.65" style="stop-color:#1d2283;stop-opacity:1"/><stop offset="0.84" style="stop-color:#537ebb;stop-opacity:1"/><stop offset="1" style="stop-color:#94ecff;stop-opacity:1"/></linearGradient></defs></svg>